<?xml version="1.0" encoding="utf-8"?>
<!-- Generator: Adobe Illustrator 26.5.0, SVG Export Plug-In . SVG Version: 6.00 Build 0)  -->
<svg version="1.1" id="Layer_1" xmlns="http://www.w3.org/2000/svg" xmlns:xlink="http://www.w3.org/1999/xlink" x="0px" y="0px"
	 viewBox="0 0 1080 1080" style="enable-background:new 0 0 1080 1080;" xml:space="preserve">
<style type="text/css">
	.st0{fill:#5B371E;}
	.st1{fill:#D38D46;}
	.st2{fill:#148D37;}
	.st3{fill:#0C7229;}
	.st4{fill:#1A6034;}
	.st5{fill:#E8E8E8;}
	.st6{fill:#84C5C8;}
</style>
<g>
	<path class="st0" d="M563.4,44.6l115.1,130.85c6.25,7.1,15.5,10.9,25,10.24l174.92-12.01c18.39-1.26,33.66,13.85,32.38,32.04
		l-12.14,173.04c-0.66,9.39,3.17,18.55,10.36,24.73l132.27,113.86c13.9,11.97,13.9,33.34,0,45.3L909.02,676.52
		c-7.18,6.18-11.01,15.34-10.36,24.73l12.14,173.04c1.28,18.19-14,33.3-32.38,32.04L703.5,894.31c-9.5-0.65-18.75,3.14-25,10.24
		L563.4,1035.4c-12.1,13.75-33.7,13.75-45.8,0L402.5,904.56c-6.25-7.1-15.5-10.9-25-10.24l-174.92,12.01
		c-18.39,1.26-33.66-13.85-32.38-32.04l12.14-173.04c0.66-9.39-3.17-18.55-10.36-24.73L39.72,562.65c-13.9-11.97-13.9-33.34,0-45.3
		l132.27-113.86c7.18-6.18,11.01-15.34,10.36-24.73L170.2,205.71c-1.28-18.19,14-33.3,32.38-32.04l174.92,12.01
		c9.5,0.65,18.75-3.14,25-10.24L517.6,44.6C529.7,30.84,551.3,30.84,563.4,44.6z"/>
	<path class="st1" d="M562.16,71.47l108.86,123.75c5.91,6.72,14.66,10.3,23.64,9.69l165.43-11.36c17.39-1.19,31.83,13.09,30.63,30.3
		L879.23,387.5c-0.62,8.88,3,17.54,9.79,23.39l125.09,107.69c13.15,11.32,13.15,31.53,0,42.85L889.02,669.11
		c-6.79,5.85-10.42,14.51-9.79,23.39l11.48,163.65c1.21,17.2-13.24,31.49-30.63,30.3l-165.43-11.36
		c-8.98-0.62-17.73,2.97-23.64,9.69l-108.86,123.75c-11.44,13.01-31.87,13.01-43.31,0L409.99,884.78
		c-5.91-6.72-14.66-10.3-23.64-9.69l-165.43,11.36c-17.39,1.19-31.83-13.09-30.63-30.3l11.48-163.65c0.62-8.88-3-17.54-9.79-23.39
		L66.88,561.42c-13.15-11.32-13.15-31.53,0-42.85l125.09-107.69c6.79-5.85,10.42-14.51,9.79-23.39l-11.48-163.65
		c-1.21-17.2,13.24-31.49,30.63-30.3l165.43,11.36c8.98,0.62,17.73-2.97,23.64-9.69L518.84,71.47
		C530.29,58.46,550.71,58.46,562.16,71.47z"/>
	<path class="st2" d="M558.91,141.66l92.55,105.21c5.02,5.71,12.47,8.76,20.1,8.24l140.64-9.66c14.78-1.01,27.06,11.13,26.04,25.76
		l-9.76,139.13c-0.53,7.55,2.55,14.92,8.33,19.89l106.35,91.55c11.18,9.62,11.18,26.8,0,36.43l-106.35,91.55
		c-5.77,4.97-8.86,12.33-8.33,19.89l9.76,139.13c1.03,14.63-11.25,26.77-26.04,25.76l-140.64-9.66c-7.64-0.52-15.08,2.53-20.1,8.24
		l-92.55,105.21c-9.73,11.06-27.09,11.06-36.82,0l-92.55-105.21c-5.02-5.71-12.47-8.76-20.1-8.24l-140.64,9.66
		c-14.78,1.01-27.06-11.13-26.04-25.76l9.76-139.13c0.53-7.55-2.55-14.92-8.33-19.89l-106.35-91.55c-11.18-9.62-11.18-26.8,0-36.43
		l106.35-91.55c5.77-4.97,8.86-12.33,8.33-19.89l-9.76-139.13c-1.03-14.63,11.25-26.77,26.04-25.76l140.64,9.66
		c7.64,0.52,15.08-2.53,20.1-8.24l92.55-105.21C531.82,130.6,549.18,130.6,558.91,141.66z"/>
	<path class="st3" d="M555.64,212.53l76.08,86.49c4.13,4.7,10.25,7.2,16.53,6.77l115.62-7.94c12.15-0.83,22.25,9.15,21.41,21.18
		l-8.02,114.38c-0.44,6.21,2.1,12.26,6.84,16.35l87.43,75.27c9.19,7.91,9.19,22.03,0,29.95l-87.43,75.27
		c-4.75,4.09-7.28,10.14-6.84,16.35l8.02,114.38c0.84,12.02-9.25,22.01-21.41,21.18l-115.62-7.94c-6.28-0.43-12.39,2.08-16.53,6.77
		l-76.08,86.49c-8,9.09-22.27,9.09-30.27,0l-76.08-86.49c-4.13-4.7-10.25-7.2-16.53-6.77l-115.62,7.94
		c-12.15,0.83-22.25-9.15-21.41-21.18l8.02-114.38c0.44-6.21-2.1-12.26-6.84-16.35l-87.43-75.27c-9.19-7.91-9.19-22.03,0-29.95
		l87.43-75.27c4.75-4.09,7.28-10.14,6.84-16.35l-8.02-114.38c-0.84-12.02,9.25-22.01,21.41-21.18l115.62,7.94
		c6.28,0.43,12.39-2.08,16.53-6.77l76.08-86.49C533.36,203.44,547.64,203.44,555.64,212.53z"/>
	<path class="st4" d="M552.88,272.18l62.22,70.74c3.38,3.84,8.38,5.89,13.52,5.54l94.56-6.49c9.94-0.68,18.2,7.48,17.51,17.32
		l-6.56,93.54c-0.36,5.08,1.72,10.03,5.6,13.37l71.5,61.56c7.52,6.47,7.52,18.02,0,24.49l-71.5,61.56
		c-3.88,3.34-5.95,8.29-5.6,13.37l6.56,93.54c0.69,9.83-7.57,18-17.51,17.32l-94.56-6.49c-5.13-0.35-10.14,1.7-13.52,5.54
		l-62.22,70.74c-6.54,7.44-18.22,7.44-24.76,0l-62.22-70.74c-3.38-3.84-8.38-5.89-13.51-5.54l-94.56,6.49
		c-9.94,0.68-18.2-7.48-17.51-17.32l6.56-93.54c0.36-5.08-1.72-10.03-5.6-13.37l-71.5-61.56c-7.52-6.47-7.52-18.02,0-24.49
		l71.5-61.56c3.88-3.34,5.95-8.29,5.6-13.37l-6.56-93.54c-0.69-9.83,7.57-18,17.51-17.32l94.56,6.49c5.13,0.35,10.14-1.7,13.51-5.54
		l62.22-70.74C534.66,264.75,546.34,264.75,552.88,272.18z"/>
	<path class="st5" d="M540.25,458.56L540.25,458.56c-14.28,24.71-90.45,44.41-90.45,110.15c41.22-59.92,74.28-58.63,90.45-77.92
		c16.17,19.29,49.22,18.01,90.45,77.92C630.7,502.97,554.53,483.27,540.25,458.56z"/>
	<path class="st5" d="M540.25,373.61L540.25,373.61c-19.64,33.98-124.37,61.07-124.37,151.46
		c56.68-82.38,102.13-80.62,124.37-107.14c22.24,26.52,67.68,24.76,124.37,107.14C664.62,434.68,559.89,407.59,540.25,373.61z"/>
	<path class="st5" d="M540.5,649.91c3.92-4.29,60.1-62.22,168.74-21.22l5.16-18.17c0,0-116.41-54.82-173.91,24.76h-0.25
		c-57.49-79.58-173.84-24.76-173.84-24.76l5.1,18.17c108.64-41,164.82,16.92,168.74,21.22H540.5z"/>
	<path class="st5" d="M572.38,666.28c10.83-6.35,47.43-23.92,122.41-24.85c0,0-83.62-25.02-154.54,21.64h0l0,0h0
		c-70.92-46.67-154.54-21.64-154.54-21.64c74.98,0.92,111.58,18.49,122.41,24.85c-105.74,12.78-171.64,43.34-171.64,43.34
		s101.88-25.05,203.77-28.76c101.88,3.71,203.77,28.76,203.77,28.76S678.12,679.06,572.38,666.28z"/>
</g>
</svg>
